<?xml version="1.0" encoding="UTF-8" standalone="no"?>
<svg
   xmlns:dc="http://purl.org/dc/elements/1.1/"
   xmlns:cc="http://creativecommons.org/ns#"
   xmlns:rdf="http://www.w3.org/1999/02/22-rdf-syntax-ns#"
   xmlns:svg="http://www.w3.org/2000/svg"
   xmlns="http://www.w3.org/2000/svg"
   viewBox="0 0 406.66666 48"
   height="48"
   width="406.66666"
   xml:space="preserve"
   id="svg2"
   version="1.1"><metadata
     id="metadata8"><rdf:RDF><cc:Work
         rdf:about=""><dc:format>image/svg+xml</dc:format><dc:type
           rdf:resource="http://purl.org/dc/dcmitype/StillImage" /></cc:Work></rdf:RDF></metadata><defs
     id="defs6"><clipPath
       id="clipPath18"
       clipPathUnits="userSpaceOnUse"><path
         id="path16"
         d="M 0,36 H 305 V 0 H 0 Z" /></clipPath></defs><g
     transform="matrix(1.3333333,0,0,-1.3333333,0,48)"
     id="g10"><g
       id="g12"><g
         clip-path="url(#clipPath18)"
         id="g14"><g
           transform="translate(34.813,5.1416)"
           id="g20"><path
             id="path22"
             style="fill:#ed3237;fill-opacity:1;fill-rule:evenodd;stroke:none"
             d="m 0,0 -8.615,0.009 c -0.052,0.004 -5.103,0.142 -8.729,-0.483 h 0.001 c -1.967,-0.338 -3.846,-1.125 -4.682,-1.964 -0.605,-0.608 -1.044,-1.209 -1.315,-1.797 l 23.34,0 z m 0,2.19 -16.634,0.042 c -0.046,0 -4.779,0.143 -8.174,-0.499 -1.833,-0.347 -3.587,-1.162 -4.365,-2.019 -1.196,-1.324 -1.703,-2.621 -1.508,-3.847 0.005,-0.034 0.012,-0.067 0.018,-0.102 h 6.174 c 0.298,0.859 0.872,1.718 1.72,2.569 0.992,0.997 3.053,1.886 5.248,2.261 3.731,0.64 8.725,0.506 8.921,0.498 L 0,1.08 Z M 0,4.587 V 3.272 l -16.615,0.043 c -0.184,0.008 -4.878,0.147 -8.387,-0.517 -2.072,-0.393 -4.015,-1.315 -4.952,-2.35 -1.408,-1.56 -2.007,-3.134 -1.784,-4.683 h -1.88 v 8.822 z m 0,2.309 h -8.86 c -0.092,0 -9.185,-0.244 -16.477,2.069 -3.497,1.107 -6.35,3.021 -8.281,5.548 V 5.669 H 0 Z m -25.158,22.487 c -1.101,-1.985 -1.424,-3.919 -1.453,-5.424 -0.075,-3.815 1.656,-7.208 3.296,-8.745 3.575,-3.356 10.009,-5.215 17.65,-5.113 2.234,0.032 4.108,0.051 5.665,0.065 v 19.217 z m -8.46,0 h 7.256 c -0.98,-1.982 -1.281,-3.893 -1.311,-5.405 -0.081,-4.172 1.769,-7.812 3.639,-9.566 3.829,-3.588 10.358,-5.503 18.385,-5.394 C -3.421,9.046 -1.552,9.066 0,9.079 V 7.983 h -8.877 c -0.104,-0.004 -9.025,-0.24 -16.145,2.016 -3.449,1.096 -6.222,3.007 -8.017,5.529 -0.206,0.292 -0.399,0.582 -0.579,0.869 z" /></g><path
           id="path24"
           style="fill:#ed3237;fill-opacity:1;fill-rule:evenodd;stroke:none"
           d="m 294.577,0.719 h -11.251 v 4.512 h 11.251 z M 273.17,35.094 h 31.467 v -9.058 h -10.06 V 6.771 H 283.326 V 26.036 H 273.17 Z M 269.548,0.719 h -28.702 v 4.512 h 28.702 z m -28.702,34.375 h 28.034 v -8.01 h -16.734 v -4.958 h 14.112 v -8.01 H 252.146 V 8.729 h 17.402 V 6.771 H 240.846 Z M 205.184,0.719 h -10.012 v 4.512 h 10.012 z m 14.837,4.511 -1.296,-4.511 h -7.82 l -1.276,4.511 z m 14.436,0 V 0.719 h -10.154 l 0.054,4.511 z m -25.697,29.864 6.055,-21.454 6.055,21.454 h 13.587 V 6.771 h -10.082 l 0.118,9.777 0.572,6.245 -4.602,-16.022 h -11.27 l -4.534,16.022 0.382,-4.863 c 0,-1.557 0.017,-3.147 0.048,-4.767 0.032,-1.621 0.063,-3.225 0.095,-4.815 V 6.771 h -10.012 v 28.323 z m -36.329,-7.485 c -2.066,0 -3.703,-0.827 -4.911,-2.479 -1.207,-1.653 -1.812,-4.053 -1.812,-7.2 0,-3.178 0.597,-5.602 1.788,-7.27 1.192,-1.669 2.869,-2.504 5.03,-2.504 2.352,0 4.1,0.954 5.245,2.862 0.985,1.621 1.477,3.782 1.477,6.484 0,2.987 -0.508,5.355 -1.525,7.103 -1.176,2.002 -2.94,3.004 -5.292,3.004 M 185.912,5.23 c -3.268,-3.642 -7.73,-5.464 -13.386,-5.464 -5.905,0 -10.454,1.822 -13.648,5.464 z M 172.431,36 c 5.784,0 10.33,-1.828 13.635,-5.483 2.955,-3.274 4.434,-7.342 4.434,-12.205 0,-4.541 -1.119,-8.388 -3.355,-11.541 h -29.464 c -2.15,3.125 -3.224,6.94 -3.224,11.445 0,5.022 1.461,9.154 4.386,12.396 3.242,3.592 7.771,5.388 13.588,5.388 M 147.705,5.23 c -0.402,-0.478 -0.837,-0.933 -1.306,-1.365 -2.956,-2.732 -6.786,-4.099 -11.49,-4.099 -5.657,0 -10.131,1.597 -13.421,4.791 -0.225,0.219 -0.443,0.444 -0.653,0.673 z m -7.361,16.705 c -0.254,2.257 -1.128,3.846 -2.622,4.768 -0.953,0.604 -2.097,0.906 -3.432,0.906 -2.257,0 -3.942,-1.033 -5.054,-3.099 -0.922,-1.748 -1.382,-4.037 -1.382,-6.865 0,-6.326 2.224,-9.489 6.674,-9.489 1.43,0 2.59,0.351 3.48,1.049 1.272,0.986 2.066,2.591 2.384,4.816 h 10.822 c -0.292,-2.781 -1.087,-5.197 -2.384,-7.25 h -29.229 c -2.031,2.904 -3.047,6.528 -3.047,10.874 0,6.102 1.907,10.822 5.721,14.159 3.179,2.798 7.024,4.196 11.538,4.196 4.227,0 7.676,-0.779 10.346,-2.336 2.193,-1.271 3.877,-3.099 5.053,-5.483 0.89,-1.781 1.494,-3.862 1.812,-6.246 z M 93.479,12.447 h 7.104 L 96.959,24.748 Z M 91.362,5.23 90.046,0.719 H 79.08 l 1.615,4.511 z m 22.147,0 1.615,-4.511 H 103.919 L 102.557,5.23 Z M 91.381,35.094 h 11.442 L 112.958,6.771 H 81.246 Z M 55.814,27.084 V 8.729 h 2.527 c 2.575,0 4.513,0.715 5.817,2.146 1.43,1.557 2.145,4.036 2.145,7.437 0,3.242 -0.604,5.515 -1.812,6.818 -1.207,1.303 -3.448,1.954 -6.722,1.954 z M 73.093,5.23 C 72.917,5.057 72.735,4.888 72.548,4.725 69.529,2.055 65.095,0.719 59.247,0.719 H 44.515 V 5.23 Z M 44.515,35.094 h 14.827 c 5.69,0 10.076,-1.24 13.159,-3.719 3.401,-2.733 5.101,-6.961 5.101,-12.682 0,-5.045 -1.061,-9.018 -3.183,-11.922 H 44.515 Z" /></g></g></g></svg>